HIERARCHY
ROOT joint_Root
{
	OFFSET 0.0 0.0 0.0
	CHANNELS 6 Xposition Yposition Zposition Zrotation Xrotation Yrotation 
	JOINT Hips
	{
		OFFSET -0.726466 93.3139 -2.00062
		CHANNELS 6 Xposition Yposition Zposition Zrotation Xrotation Yrotation 
		JOINT Spine
		{
			OFFSET 15.7357 0.0 0.0
			CHANNELS 6 Xposition Yposition Zposition Zrotation Xrotation Yrotation 
			JOINT Chest
			{
				OFFSET 8.98455 -0.406207 0.0
				CHANNELS 6 Xposition Yposition Zposition Zrotation Xrotation Yrotation 
				JOINT Neck
				{
					OFFSET 16.3773 0.0 0.0
					CHANNELS 6 Xposition Yposition Zposition Zrotation Xrotation Yrotation 
					JOINT Head
					{
						OFFSET 6.45672 0.0 0.0
						CHANNELS 6 Xposition Yposition Zposition Zrotation Xrotation Yrotation 
						End Site
						{
							OFFSET 0.0 0.0 0.0
						}
					}
				}
				JOINT Shoulder_L
				{
					OFFSET 12.9942 -0.242716 4.98039
					CHANNELS 6 Xposition Yposition Zposition Zrotation Xrotation Yrotation 
					JOINT UpperArm_L
					{
						OFFSET 5.34809 0.0 0.0
						CHANNELS 6 Xposition Yposition Zposition Zrotation Xrotation Yrotation 
						JOINT LowerArm_L
						{
							OFFSET 24.3286 1.87007e-05 0.0
							CHANNELS 6 Xposition Yposition Zposition Zrotation Xrotation Yrotation 
							JOINT Hand_L
							{
								OFFSET 22.2916 0.0 0.0
								CHANNELS 6 Xposition Yposition Zposition Zrotation Xrotation Yrotation 
								End Site
								{
									OFFSET 0.0 0.0 0.0
								}
							}
						}
					}
				}
				JOINT Shoulder_R
				{
					OFFSET 12.9945 -0.242716 -4.98039
					CHANNELS 6 Xposition Yposition Zposition Zrotation Xrotation Yrotation 
					JOINT UpperArm_R
					{
						OFFSET -5.34813 0.0 0.0
						CHANNELS 6 Xposition Yposition Zposition Zrotation Xrotation Yrotation 
						JOINT LowerArm_R
						{
							OFFSET -24.3289 0.000322201 0.0
							CHANNELS 6 Xposition Yposition Zposition Zrotation Xrotation Yrotation 
							JOINT Hand_R
							{
								OFFSET -22.2915 -0.000108084 0.0
								CHANNELS 6 Xposition Yposition Zposition Zrotation Xrotation Yrotation 
								End Site
								{
									OFFSET 0.0 0.0 0.0
								}
							}
						}
					}
				}
			}
		}
		JOINT UpperLeg_L
		{
			OFFSET -2.19248 -6.46944 0.0
			CHANNELS 6 Xposition Yposition Zposition Zrotation Xrotation Yrotation 
			JOINT LowerLeg_L
			{
				OFFSET 39.0811 0.0 -1.23785e-05
				CHANNELS 6 Xposition Yposition Zposition Zrotation Xrotation Yrotation 
				JOINT Foot_L
				{
					OFFSET 40.9854 0.0 -1.26872e-05
					CHANNELS 6 Xposition Yposition Zposition Zrotation Xrotation Yrotation 
					JOINT Toes_L
					{
						OFFSET 11.7543 0.0 0.0
						CHANNELS 6 Xposition Yposition Zposition Zrotation Xrotation Yrotation 
						End Site
						{
							OFFSET 0.0 0.0 0.0
						}
					}
				}
			}
		}
		JOINT UpperLeg_R
		{
			OFFSET -2.19251 6.46944 0.0
			CHANNELS 6 Xposition Yposition Zposition Zrotation Xrotation Yrotation 
			JOINT LowerLeg_R
			{
				OFFSET -39.0811 -0.00228153 -0.0401928
				CHANNELS 6 Xposition Yposition Zposition Zrotation Xrotation Yrotation 
				JOINT Foot_R
				{
					OFFSET -40.9854 0.0 0.0
					CHANNELS 6 Xposition Yposition Zposition Zrotation Xrotation Yrotation 
					JOINT Toes_R
					{
						OFFSET -11.7543 0.0 0.0
						CHANNELS 6 Xposition Yposition Zposition Zrotation Xrotation Yrotation 
						End Site
						{
							OFFSET 0.0 0.0 0.0
						}
					}
				}
			}
		}
	}
}
MOTION
Frames:	9
Frame Time:	0.0333333
0.000000 0.000000 0.000000 0.000000 0.000000 -0.000000 -1.001700 91.783000 -0.421854 87.940300 -0.720630 5.852220 15.735700 0.000005 -0.000001 85.351300 83.901400 -84.989800 8.984550 -0.406207 -0.000000 4.394810 -0.997518 0.760405 16.377300 -0.000001 -0.000001 6.207690 -2.674920 1.141460 6.456720 -0.000001 -0.000000 1.201300 -1.810650 -1.123330 12.994200 -0.242716 4.980390 -90.346000 1.101810 -72.565500 5.348090 -0.000007 -0.000001 -66.441700 38.295700 -13.709100 24.328600 0.000019 0.000005 4.529250 9.059020 -26.707200 22.291600 -0.000001 0.000005 3.615790 5.605490 -11.676000 12.994500 -0.242716 -4.980390 87.917000 5.994110 -70.796800 -5.348130 -0.000001 -0.000004 -66.658400 30.548500 -14.172900 -24.328900 0.000322 -0.000009 -0.856094 -2.347330 -20.020700 -22.291500 -0.000108 -0.000004 6.468010 5.579480 -10.184100 -2.192480 -6.469440 -0.000000 -167.916000 -17.909400 -0.715316 39.081100 -0.000007 -0.000012 -0.204472 0.472655 23.393800 40.985400 -0.000006 -0.000013 -7.070360 -0.715293 -64.279300 11.754300 -0.000000 0.000003 -0.000141 -0.001375 -16.629900 -2.192510 6.469440 -0.000001 173.035000 22.673500 -178.634000 -39.081100 -0.002282 -0.040193 -0.016563 0.049437 21.906900 -40.985400 0.000008 0.000006 -2.427530 1.069110 -64.798800 -11.754300 -0.000006 -0.000006 -0.003913 -0.050533 -18.628600
0.000000 0.000000 0.000000 0.000000 0.000000 -0.000000 -0.959812 91.780200 -0.452969 87.943800 -0.746743 5.985410 15.735700 0.000005 -0.000001 85.369100 83.867900 -85.045400 8.984550 -0.406207 -0.000000 4.461510 -0.997818 0.685382 16.377300 -0.000001 -0.000001 6.233090 -2.601490 1.110750 6.456720 -0.000001 -0.000000 1.158300 -1.811990 -1.168290 12.994200 -0.242716 4.980390 -90.342200 1.087270 -72.530200 5.348090 -0.000007 -0.000001 -66.505200 38.786400 -13.774200 24.328600 0.000019 0.000005 4.526450 8.899620 -27.099900 22.291600 -0.000001 0.000005 3.649240 5.605730 -11.690800 12.994500 -0.242716 -4.980390 87.913400 6.004500 -70.797200 -5.348130 -0.000001 -0.000004 -66.152700 30.529500 -14.533100 -24.328900 0.000322 -0.000009 -0.996423 -2.621540 -20.798800 -22.291500 -0.000108 -0.000004 6.600530 5.580490 -10.238400 -2.192480 -6.469440 -0.000000 -167.912000 -17.925600 -0.629195 39.081100 -0.000007 -0.000012 -0.203720 0.469353 23.463300 40.985400 -0.000006 -0.000013 -7.032630 -0.722118 -64.303000 11.754300 -0.000000 0.000003 -0.000134 -0.001321 -16.627900 -2.192510 6.469440 -0.000001 172.964000 22.666700 -178.547000 -39.081100 -0.002282 -0.040193 -0.013542 0.041830 21.952600 -40.985400 0.000008 0.000006 -2.381750 1.098540 -64.785400 -11.754300 -0.000006 -0.000006 -0.003927 -0.050682 -18.634700
0.000000 0.000000 0.000000 0.000000 0.000000 -0.000000 -0.904917 91.782500 -0.508745 87.939300 -0.829250 6.091180 15.735700 0.000005 -0.000001 85.415000 83.858000 -85.131800 8.984550 -0.406207 -0.000000 4.481620 -0.988375 0.604571 16.377300 -0.000001 -0.000001 6.240340 -2.541740 1.105140 6.456720 -0.000001 -0.000000 1.146270 -1.775420 -1.194450 12.994200 -0.242716 4.980390 -90.320300 1.012040 -72.436500 5.348090 -0.000007 -0.000001 -66.489100 39.459600 -13.896600 24.328600 0.000019 0.000005 4.468900 8.657180 -27.439500 22.291600 -0.000001 0.000005 3.714540 5.607230 -11.784000 12.994500 -0.242716 -4.980390 87.891100 6.064200 -70.783300 -5.348130 -0.000001 -0.000004 -65.380300 30.246500 -15.028900 -24.328900 0.000322 -0.000009 -1.112730 -2.761880 -21.933400 -22.291500 -0.000108 -0.000004 6.940000 5.578650 -10.139700 -2.192480 -6.469440 -0.000000 -167.911000 -17.909400 -0.538585 39.081100 -0.000007 -0.000012 -0.206034 0.474040 23.491800 40.985400 -0.000006 -0.000013 -7.012730 -0.794806 -64.322200 11.754300 -0.000000 0.000003 -0.000145 -0.001412 -16.631300 -2.192510 6.469440 -0.000001 172.915000 22.671600 -178.504000 -39.081100 -0.002282 -0.040193 -0.009310 0.031277 21.985800 -40.985400 0.000008 0.000006 -2.263980 1.143650 -64.747500 -11.754300 -0.000006 -0.000006 -0.004166 -0.053153 -18.735300
0.000000 0.000000 0.000000 0.000000 0.000000 -0.000000 -0.849158 91.773000 -0.548589 87.921900 -0.962039 6.201580 15.735700 0.000005 -0.000001 85.456900 83.852200 -85.213400 8.984550 -0.406207 -0.000000 4.493580 -0.979208 0.524870 16.377300 -0.000001 -0.000001 6.194600 -2.425160 1.039980 6.456720 -0.000001 -0.000000 1.199540 -1.704330 -1.127540 12.994200 -0.242716 4.980390 -90.282900 0.887471 -72.319700 5.348090 -0.000007 -0.000001 -66.142500 40.640800 -14.200900 24.328600 0.000019 0.000005 4.535910 8.629650 -27.865800 22.291600 -0.000001 0.000005 3.751620 5.607970 -11.830500 12.994500 -0.242716 -4.980390 87.889200 6.063340 -70.764200 -5.348130 -0.000001 -0.000004 -64.311600 29.640700 -15.847100 -24.328900 0.000322 -0.000009 -1.168570 -2.715840 -23.274400 -22.291500 -0.000108 -0.000004 6.717470 5.577530 -10.080300 -2.192480 -6.469440 -0.000000 -167.903000 -17.915900 -0.485576 39.081100 -0.000007 -0.000012 -0.205752 0.470393 23.625100 40.985400 -0.000006 -0.000013 -6.985350 -0.871043 -64.400300 11.754300 -0.000000 0.000003 -0.000121 -0.001211 -16.623800 -2.192510 6.469440 -0.000001 172.853000 22.583000 -178.452000 -39.081100 -0.002282 -0.040193 -0.012564 0.039266 22.021500 -40.985400 0.000008 0.000006 -2.322750 1.248210 -64.711300 -11.754300 -0.000006 -0.000006 -0.004033 -0.051786 -18.679600
0.000000 0.000000 0.000000 0.000000 0.000000 -0.000000 -0.773026 91.780700 -0.613132 87.936100 -1.210690 6.234900 15.735700 0.000005 -0.000001 85.664900 83.878300 -85.468400 8.984550 -0.406207 -0.000000 4.444470 -0.929600 0.428738 16.377300 -0.000001 -0.000001 6.110940 -2.308540 1.019910 6.456720 -0.000001 -0.000000 1.229660 -1.607890 -1.180730 12.994200 -0.242716 4.980390 -90.258000 0.804553 -72.220300 5.348090 -0.000007 -0.000001 -65.306200 42.282400 -14.609700 24.328600 0.000019 0.000005 4.793170 8.820150 -28.672000 22.291600 -0.000001 0.000005 3.778950 5.611840 -12.077000 12.994500 -0.242716 -4.980390 87.895000 6.032040 -70.721600 -5.348130 -0.000001 -0.000004 -62.848600 28.765500 -17.088100 -24.328900 0.000322 -0.000009 -1.113610 -2.407490 -24.811300 -22.291500 -0.000108 -0.000004 6.880210 5.578740 -10.144400 -2.192480 -6.469440 -0.000000 -167.955000 -18.052400 -0.455720 39.081100 -0.000007 -0.000012 -0.204995 0.468146 23.648300 40.985400 -0.000006 -0.000013 -6.951230 -1.020620 -64.407400 11.754300 -0.000000 0.000003 -0.000130 -0.001289 -16.626700 -2.192510 6.469440 -0.000001 172.807000 22.458100 -178.491000 -39.081100 -0.002282 -0.040193 -0.013446 0.041520 21.986000 -40.985400 0.000008 0.000006 -2.385840 1.374070 -64.602900 -11.754300 -0.000006 -0.000006 -0.004062 -0.052086 -18.691800
0.000000 0.000000 0.000000 0.000000 0.000000 -0.000000 -0.693714 91.790600 -0.690306 87.939400 -1.563940 6.315490 15.735700 0.000005 -0.000001 85.984700 83.886100 -85.836800 8.984550 -0.406207 -0.000000 4.433300 -0.859091 0.328705 16.377300 -0.000001 -0.000001 6.053160 -2.168120 0.979655 6.456720 -0.000001 -0.000000 1.102790 -1.505140 -1.232990 12.994200 -0.242716 4.980390 -90.243000 0.752762 -72.109700 5.348090 -0.000007 -0.000001 -63.872700 44.339400 -15.099800 24.328600 0.000019 0.000005 5.057130 8.778040 -30.108600 22.291600 -0.000001 0.000005 3.774560 5.618080 -12.488200 12.994500 -0.242716 -4.980390 87.892000 6.015140 -70.646500 -5.348130 -0.000001 -0.000004 -61.036800 27.457200 -18.756800 -24.328900 0.000322 -0.000009 -1.266160 -2.527530 -26.597200 -22.291500 -0.000108 -0.000004 7.270080 5.579110 -10.164000 -2.192480 -6.469440 -0.000000 -167.976000 -18.180400 -0.327594 39.081100 -0.000007 -0.000012 -0.204659 0.467435 23.645700 40.985400 -0.000006 -0.000013 -6.930970 -1.215680 -64.433000 11.754300 -0.000000 0.000003 -0.000114 -0.001150 -16.621600 -2.192510 6.469440 -0.000001 172.770000 22.269000 -178.526000 -39.081100 -0.002282 -0.040193 -0.010388 0.033976 21.969400 -40.985400 0.000008 0.000006 -2.302840 1.567940 -64.488100 -11.754300 -0.000006 -0.000006 -0.004157 -0.053060 -18.731500
0.000000 0.000000 0.000000 0.000000 0.000000 -0.000000 -0.612430 91.789000 -0.807593 87.896300 -1.881640 6.355930 15.735700 0.000005 -0.000001 85.912300 83.903200 -85.794300 8.984550 -0.406207 -0.000000 4.397870 -0.871210 0.269300 16.377300 -0.000001 -0.000001 6.010850 -2.064740 0.982732 6.456720 -0.000001 -0.000000 0.931500 -1.368920 -1.368640 12.994200 -0.242716 4.980390 -90.242500 0.746483 -72.005700 5.348090 -0.000007 -0.000001 -61.811900 46.698100 -15.620700 24.328600 0.000019 0.000005 5.256510 8.333410 -32.407000 22.291600 -0.000001 0.000005 3.802160 5.626270 -13.063700 12.994500 -0.242716 -4.980390 87.911300 5.935560 -70.573200 -5.348130 -0.000001 -0.000004 -58.974100 25.707800 -20.881300 -24.328900 0.000322 -0.000009 -1.542800 -2.835220 -28.551800 -22.291500 -0.000108 -0.000004 7.519360 5.579010 -10.160100 -2.192480 -6.469440 -0.000000 -167.987000 -18.257400 -0.375404 39.081100 -0.000007 -0.000012 -0.205672 0.466447 23.794600 40.985400 -0.000006 -0.000013 -6.912910 -1.465900 -64.491000 11.754300 -0.000000 0.000003 -0.000129 -0.001277 -16.626300 -2.192510 6.469440 -0.000001 172.796000 22.144900 -178.640000 -39.081100 -0.002282 -0.040193 -0.010707 0.034719 21.996700 -40.985400 0.000008 0.000006 -2.332020 1.731880 -64.367200 -11.754300 -0.000006 -0.000006 -0.004234 -0.053848 -18.763600
0.000000 0.000000 0.000000 0.000000 0.000000 -0.000000 -0.535002 91.795900 -0.893789 87.875500 -2.290440 6.465190 15.735700 0.000005 -0.000001 86.179000 83.910500 -86.098200 8.984550 -0.406207 -0.000000 4.386920 -0.812645 0.192524 16.377300 -0.000001 -0.000001 5.940170 -2.011320 1.001720 6.456720 -0.000001 -0.000000 0.853474 -1.286700 -1.507850 12.994200 -0.242716 4.980390 -90.237300 0.727005 -71.921300 5.348090 -0.000007 -0.000001 -58.840400 49.543800 -16.459900 24.328600 0.000019 0.000005 5.296890 7.465440 -35.513300 22.291600 -0.000001 0.000005 4.071950 5.637960 -13.950100 12.994500 -0.242716 -4.980390 87.940400 5.801970 -70.417300 -5.348130 -0.000001 -0.000004 -56.749900 23.569900 -23.318900 -24.328900 0.000322 -0.000009 -1.707780 -2.871970 -30.741300 -22.291500 -0.000108 -0.000004 7.864180 5.577820 -10.094900 -2.192480 -6.469440 -0.000000 -167.960000 -18.450900 -0.229144 39.081100 -0.000007 -0.000012 -0.205081 0.464303 23.831200 40.985400 -0.000006 -0.000013 -6.889630 -1.639100 -64.528100 11.754300 -0.000000 0.000003 -0.000120 -0.001206 -16.623600 -2.192510 6.469440 -0.000001 172.794000 21.870500 -178.660000 -39.081100 -0.002282 -0.040193 -0.010782 0.034941 21.975800 -40.985400 0.000008 0.000006 -2.298780 1.868140 -64.242100 -11.754300 -0.000006 -0.000006 -0.004249 -0.054006 -18.770100
0.000000 0.000000 0.000000 0.000000 0.000000 -0.000000 -0.475006 91.789800 -0.984603 87.866300 -2.613780 6.549040 15.735700 0.000005 -0.000001 86.202900 83.931500 -86.179500 8.984550 -0.406207 -0.000000 4.344910 -0.803143 0.077139 16.377300 -0.000001 -0.000001 5.931380 -1.986740 0.992630 6.456720 -0.000001 -0.000000 0.747113 -1.294970 -1.496740 12.994200 -0.242716 4.980390 -90.191900 0.583865 -71.804400 5.348090 -0.000007 -0.000001 -55.256000 52.422600 -17.542200 24.328600 0.000019 0.000005 5.381230 6.573280 -39.450500 22.291600 -0.000001 0.000005 4.402010 5.651070 -15.103300 12.994500 -0.242716 -4.980390 87.972500 5.673380 -70.297100 -5.348130 -0.000001 -0.000004 -54.349800 21.147400 -25.951700 -24.328900 0.000322 -0.000009 -1.862180 -2.851240 -33.152000 -22.291500 -0.000108 -0.000004 8.546780 5.574750 -9.935110 -2.192480 -6.469440 -0.000000 -167.963000 -18.558500 -0.186817 39.081100 -0.000007 -0.000012 -0.205740 0.463206 23.949500 40.985400 -0.000006 -0.000013 -6.880900 -1.840790 -64.587400 11.754300 -0.000000 0.000003 -0.000112 -0.001134 -16.620900 -2.192510 6.469440 -0.000001 172.759000 21.665200 -178.687000 -39.081100 -0.002282 -0.040193 -0.016750 0.049749 21.967800 -40.985400 0.000008 0.000006 -2.596620 2.031870 -64.114100 -11.754300 -0.000006 -0.000006 -0.004483 -0.056373 -18.866500
